<?xml version="1.0" encoding="utf-8" ?>
<svg baseProfile="full" height="690px" version="1.1" viewBox="0 0 1150 690" width="1150px" xmlns="http://www.w3.org/2000/svg" xmlns:ev="http://www.w3.org/2001/xml-events" xmlns:xlink="http://www.w3.org/1999/xlink"><defs><linearGradient id="metal" x1="0%" x2="0%" y1="0%" y2="100%"><stop offset="0" stop-color="#fafcff" /><stop offset="0.08" stop-color="#e9eef2" /><stop offset="0.24" stop-color="#cad4dc" /><stop offset="0.5" stop-color="#fbfdff" /><stop offset="0.72" stop-color="#b6c3cc" /><stop offset="1" stop-color="#eef4f7" /></linearGradient><linearGradient id="bg" x1="0%" x2="100%" y1="0%" y2="0%"><stop offset="0" stop-color="#134f64" /><stop offset="0.4" stop-color="#0a3548" /><stop offset="1" stop-color="#04192b" /></linearGradient></defs><g transform="translate(0,0)"><path d="M 399.18 41.18 L 401.54 307.86 L 436.94 307.86 L 586.80 146.20 L 589.16 238.24 L 632.82 188.68 L 634.00 41.18 L 623.38 40.00 L 448.74 228.80 L 446.38 41.18 Z M 750.82 126.14 L 721.32 127.32 L 567.92 300.78 L 565.56 206.38 L 527.80 247.68 L 521.90 385.74 L 552.58 385.74 L 704.80 217.00 L 705.98 384.56 L 750.82 384.56 Z" fill="#000000" opacity="0.1" transform="translate(10,15)" /><path d="M 84.570 -89.746 L 84.570 -0.000 L 71.250 -0.000 L 71.250 -61.758 Q 71.250 -64.570 71.367 -67.656 Q 71.504 -70.742 71.992 -74.121 Q 70.820 -71.133 69.570 -68.555 Q 68.320 -65.996 67.070 -64.004 L 26.934 -4.180 Q 25.996 -2.617 24.453 -1.309 Q 22.930 -0.000 20.996 -0.000 L 11.055 -0.000 L 11.055 -89.746 L 24.434 -89.746 L 24.434 -28.008 Q 24.434 -25.195 24.277 -22.090 Q 24.121 -19.004 23.691 -15.566 Q 24.805 -18.555 26.055 -21.152 Q 27.305 -23.750 28.555 -25.742 L 68.750 -85.566 Q 69.688 -87.129 71.191 -88.438 Q 72.695 -89.746 74.629 -89.746 L 84.570 -89.746 Z M 180.258 -89.746 L 180.258 -0.000 L 166.938 -0.000 L 166.938 -61.758 Q 166.938 -64.570 167.055 -67.656 Q 167.191 -70.742 167.680 -74.121 Q 166.508 -71.133 165.258 -68.555 Q 164.008 -65.996 162.758 -64.004 L 122.621 -4.180 Q 121.684 -2.617 120.141 -1.309 Q 118.617 -0.000 116.684 -0.000 L 106.742 -0.000 L 106.742 -89.746 L 120.121 -89.746 L 120.121 -28.008 Q 120.121 -25.195 119.965 -22.090 Q 119.809 -19.004 119.379 -15.566 Q 120.492 -18.555 121.742 -21.152 Q 122.992 -23.750 124.242 -25.742 L 164.438 -85.566 Q 165.375 -87.129 166.879 -88.438 Q 168.383 -89.746 170.316 -89.746 L 180.258 -89.746 Z M 253.445 -63.496 L 253.445 -0.000 L 241.180 -0.000 L 241.180 -29.258 L 212.117 -29.258 L 212.117 -0.000 L 199.930 -0.000 L 199.930 -63.496 L 212.117 -63.496 L 212.117 -38.496 L 241.180 -38.496 L 241.180 -63.496 L 253.445 -63.496 Z M 323.695 -54.258 L 299.750 -54.258 L 299.750 -0.000 L 287.504 -0.000 L 287.504 -54.258 L 263.559 -54.258 L 263.559 -63.496 L 323.695 -63.496 L 323.695 -54.258 Z M 375.938 -38.809 Q 375.938 -42.441 374.902 -45.488 Q 373.867 -48.555 371.875 -50.801 Q 369.883 -53.066 366.992 -54.316 Q 364.121 -55.566 360.371 -55.566 Q 352.695 -55.566 348.281 -51.113 Q 343.867 -46.680 342.695 -38.809 L 375.938 -38.809 Z M 385.996 -9.062 Q 383.750 -6.445 380.801 -4.531 Q 377.871 -2.617 374.551 -1.426 Q 371.250 -0.254 367.715 0.312 Q 364.180 0.879 360.742 0.879 Q 354.180 0.879 348.594 -1.328 Q 343.008 -3.555 338.906 -7.832 Q 334.805 -12.129 332.520 -18.457 Q 330.254 -24.805 330.254 -33.066 Q 330.254 -39.688 332.305 -45.410 Q 334.375 -51.133 338.223 -55.371 Q 342.070 -59.629 347.617 -62.051 Q 353.184 -64.492 360.117 -64.492 Q 365.938 -64.492 370.840 -62.578 Q 375.742 -60.684 379.297 -57.051 Q 382.871 -53.438 384.902 -48.125 Q 386.934 -42.812 386.934 -35.996 Q 386.934 -33.184 386.309 -32.207 Q 385.684 -31.250 384.004 -31.250 L 342.383 -31.250 Q 342.559 -25.566 343.984 -21.348 Q 345.430 -17.129 347.969 -14.316 Q 350.508 -11.504 354.004 -10.117 Q 357.500 -8.750 361.816 -8.750 Q 365.879 -8.750 368.848 -9.688 Q 371.816 -10.625 373.965 -11.719 Q 376.133 -12.812 377.598 -13.750 Q 379.063 -14.688 380.195 -14.688 Q 381.680 -14.688 382.500 -13.555 L 385.996 -9.062 Z M 441.695 -54.258 L 412.242 -54.258 L 412.242 -0.000 L 400.055 -0.000 L 400.055 -63.496 L 441.695 -63.496 L 441.695 -54.258 Z M 464.117 -15.625 Q 467.125 -11.680 470.582 -10.117 Q 474.059 -8.555 478.375 -8.555 Q 486.754 -8.555 491.344 -14.590 Q 495.934 -20.625 495.934 -32.188 Q 495.934 -38.242 494.899 -42.520 Q 493.883 -46.816 491.910 -49.531 Q 489.938 -52.246 487.066 -53.516 Q 484.195 -54.805 480.563 -54.805 Q 475.250 -54.805 471.344 -52.422 Q 467.438 -50.059 464.117 -45.684 L 464.117 -15.625 Z M 463.492 -54.004 Q 465.504 -56.367 467.770 -58.340 Q 470.055 -60.312 472.672 -61.719 Q 475.309 -63.125 478.277 -63.906 Q 481.246 -64.688 484.625 -64.688 Q 490.055 -64.688 494.469 -62.559 Q 498.883 -60.430 502.008 -56.309 Q 505.133 -52.188 506.852 -46.113 Q 508.570 -40.059 508.570 -32.188 Q 508.570 -25.117 506.656 -19.082 Q 504.742 -13.066 501.207 -8.613 Q 497.691 -4.180 492.594 -1.641 Q 487.496 0.879 481.129 0.879 Q 475.445 0.879 471.383 -0.996 Q 467.320 -2.871 464.117 -6.250 L 464.117 21.309 L 451.930 21.309 L 451.930 -63.496 L 459.254 -63.496 Q 461.813 -63.496 462.438 -61.055 L 463.492 -54.004 Z M 556.320 -28.184 Q 548.879 -27.930 543.684 -27.031 Q 538.508 -26.133 535.246 -24.629 Q 532.004 -23.125 530.559 -21.094 Q 529.133 -19.062 529.133 -16.562 Q 529.133 -14.180 529.914 -12.461 Q 530.695 -10.742 532.024 -9.648 Q 533.371 -8.555 535.188 -8.047 Q 537.004 -7.559 539.133 -7.559 Q 541.945 -7.559 544.289 -8.125 Q 546.633 -8.691 548.684 -9.707 Q 550.754 -10.742 552.629 -12.246 Q 554.504 -13.750 556.320 -15.684 L 556.320 -28.184 Z M 520.559 -54.629 Q 525.871 -59.688 532.082 -62.188 Q 538.313 -64.688 545.754 -64.688 Q 551.184 -64.688 555.363 -62.910 Q 559.563 -61.133 562.434 -57.930 Q 565.305 -54.746 566.770 -50.312 Q 568.254 -45.879 568.254 -40.508 L 568.254 -0.000 L 562.805 -0.000 Q 561.008 -0.000 560.070 -0.586 Q 559.133 -1.191 558.567 -2.812 L 557.258 -8.379 Q 554.817 -6.133 552.434 -4.414 Q 550.070 -2.695 547.473 -1.465 Q 544.875 -0.254 541.926 0.371 Q 538.996 0.996 535.442 0.996 Q 531.692 0.996 528.410 -0.020 Q 525.129 -1.055 522.688 -3.184 Q 520.246 -5.312 518.840 -8.496 Q 517.434 -11.680 517.434 -15.938 Q 517.434 -19.688 519.465 -23.145 Q 521.496 -26.621 526.086 -29.375 Q 530.695 -32.129 538.098 -33.867 Q 545.500 -35.625 556.320 -35.879 L 556.320 -40.508 Q 556.320 -47.695 553.254 -51.250 Q 550.188 -54.805 544.250 -54.805 Q 540.246 -54.805 537.531 -53.809 Q 534.817 -52.812 532.844 -51.582 Q 530.871 -50.371 529.406 -49.375 Q 527.942 -48.379 526.379 -48.379 Q 525.129 -48.379 524.211 -49.062 Q 523.313 -49.746 522.746 -50.684 L 520.559 -54.629 Z M 649.754 -9.258 L 649.754 17.930 Q 649.754 19.688 648.738 20.684 Q 647.742 21.680 646.180 21.680 L 638.680 21.680 L 638.680 -0.000 L 584.617 -0.000 L 584.617 -63.496 L 596.805 -63.496 L 596.805 -9.258 L 625.867 -9.258 L 625.867 -63.496 L 638.133 -63.496 L 638.133 -9.258 L 649.754 -9.258 Z M 715.754 -63.496 L 715.754 -0.000 L 703.508 -0.000 L 703.508 -41.504 Q 703.508 -42.754 703.625 -44.277 Q 703.742 -45.820 703.996 -47.383 Q 703.371 -46.055 702.766 -44.902 Q 702.180 -43.750 701.555 -42.871 L 672.375 -3.066 Q 671.692 -1.934 670.559 -0.938 Q 669.445 0.059 668.000 0.059 L 660.617 0.059 L 660.617 -63.496 L 672.805 -63.496 L 672.805 -21.934 Q 672.805 -20.684 672.688 -19.141 Q 672.570 -17.617 672.317 -16.133 Q 673.567 -18.867 674.758 -20.566 L 703.938 -60.430 Q 704.621 -61.504 705.774 -62.500 Q 706.945 -63.496 708.371 -63.496 L 715.754 -63.496 Z M 766.125 -34.180 L 766.125 -55.371 L 756.067 -55.371 Q 752.629 -55.371 750.305 -54.395 Q 748.000 -53.438 746.594 -51.875 Q 745.188 -50.312 744.582 -48.438 Q 743.996 -46.562 743.996 -44.688 Q 743.996 -39.746 747.551 -36.953 Q 751.125 -34.180 757.258 -34.180 L 766.125 -34.180 Z M 777.746 -63.496 L 777.746 -0.000 L 766.125 -0.000 L 766.125 -26.445 L 761.809 -26.445 Q 759.992 -26.445 758.801 -26.152 Q 757.629 -25.879 756.770 -25.312 Q 755.930 -24.746 755.305 -23.926 Q 754.680 -23.125 754.055 -22.129 L 741.125 -4.258 Q 740.500 -3.184 739.817 -2.402 Q 739.133 -1.621 738.254 -1.094 Q 737.375 -0.566 736.184 -0.273 Q 734.992 -0.000 733.371 -0.000 L 724.934 -0.000 L 742.746 -23.555 Q 745.070 -27.500 749.055 -28.867 Q 744.309 -29.492 741.027 -31.152 Q 737.746 -32.812 735.676 -35.020 Q 733.625 -37.246 732.688 -39.902 Q 731.750 -42.559 731.750 -45.312 Q 731.750 -48.691 733.059 -51.934 Q 734.367 -55.195 737.238 -57.754 Q 740.129 -60.312 744.680 -61.895 Q 749.250 -63.496 755.695 -63.496 L 777.746 -63.496 Z" fill="#000000" opacity="0.095" transform="translate(190.59954643249512,580) scale(1.0)" /><path d="M 399.18 41.18 L 401.54 307.86 L 436.94 307.86 L 586.80 146.20 L 589.16 238.24 L 632.82 188.68 L 634.00 41.18 L 623.38 40.00 L 448.74 228.80 L 446.38 41.18 Z M 750.82 126.14 L 721.32 127.32 L 567.92 300.78 L 565.56 206.38 L 527.80 247.68 L 521.90 385.74 L 552.58 385.74 L 704.80 217.00 L 705.98 384.56 L 750.82 384.56 Z" fill="#000000" opacity="0.15" transform="translate(6,9)" /><path d="M 84.570 -89.746 L 84.570 -0.000 L 71.250 -0.000 L 71.250 -61.758 Q 71.250 -64.570 71.367 -67.656 Q 71.504 -70.742 71.992 -74.121 Q 70.820 -71.133 69.570 -68.555 Q 68.320 -65.996 67.070 -64.004 L 26.934 -4.180 Q 25.996 -2.617 24.453 -1.309 Q 22.930 -0.000 20.996 -0.000 L 11.055 -0.000 L 11.055 -89.746 L 24.434 -89.746 L 24.434 -28.008 Q 24.434 -25.195 24.277 -22.090 Q 24.121 -19.004 23.691 -15.566 Q 24.805 -18.555 26.055 -21.152 Q 27.305 -23.750 28.555 -25.742 L 68.750 -85.566 Q 69.688 -87.129 71.191 -88.438 Q 72.695 -89.746 74.629 -89.746 L 84.570 -89.746 Z M 180.258 -89.746 L 180.258 -0.000 L 166.938 -0.000 L 166.938 -61.758 Q 166.938 -64.570 167.055 -67.656 Q 167.191 -70.742 167.680 -74.121 Q 166.508 -71.133 165.258 -68.555 Q 164.008 -65.996 162.758 -64.004 L 122.621 -4.180 Q 121.684 -2.617 120.141 -1.309 Q 118.617 -0.000 116.684 -0.000 L 106.742 -0.000 L 106.742 -89.746 L 120.121 -89.746 L 120.121 -28.008 Q 120.121 -25.195 119.965 -22.090 Q 119.809 -19.004 119.379 -15.566 Q 120.492 -18.555 121.742 -21.152 Q 122.992 -23.750 124.242 -25.742 L 164.438 -85.566 Q 165.375 -87.129 166.879 -88.438 Q 168.383 -89.746 170.316 -89.746 L 180.258 -89.746 Z M 253.445 -63.496 L 253.445 -0.000 L 241.180 -0.000 L 241.180 -29.258 L 212.117 -29.258 L 212.117 -0.000 L 199.930 -0.000 L 199.930 -63.496 L 212.117 -63.496 L 212.117 -38.496 L 241.180 -38.496 L 241.180 -63.496 L 253.445 -63.496 Z M 323.695 -54.258 L 299.750 -54.258 L 299.750 -0.000 L 287.504 -0.000 L 287.504 -54.258 L 263.559 -54.258 L 263.559 -63.496 L 323.695 -63.496 L 323.695 -54.258 Z M 375.938 -38.809 Q 375.938 -42.441 374.902 -45.488 Q 373.867 -48.555 371.875 -50.801 Q 369.883 -53.066 366.992 -54.316 Q 364.121 -55.566 360.371 -55.566 Q 352.695 -55.566 348.281 -51.113 Q 343.867 -46.680 342.695 -38.809 L 375.938 -38.809 Z M 385.996 -9.062 Q 383.750 -6.445 380.801 -4.531 Q 377.871 -2.617 374.551 -1.426 Q 371.250 -0.254 367.715 0.312 Q 364.180 0.879 360.742 0.879 Q 354.180 0.879 348.594 -1.328 Q 343.008 -3.555 338.906 -7.832 Q 334.805 -12.129 332.520 -18.457 Q 330.254 -24.805 330.254 -33.066 Q 330.254 -39.688 332.305 -45.410 Q 334.375 -51.133 338.223 -55.371 Q 342.070 -59.629 347.617 -62.051 Q 353.184 -64.492 360.117 -64.492 Q 365.938 -64.492 370.840 -62.578 Q 375.742 -60.684 379.297 -57.051 Q 382.871 -53.438 384.902 -48.125 Q 386.934 -42.812 386.934 -35.996 Q 386.934 -33.184 386.309 -32.207 Q 385.684 -31.250 384.004 -31.250 L 342.383 -31.250 Q 342.559 -25.566 343.984 -21.348 Q 345.430 -17.129 347.969 -14.316 Q 350.508 -11.504 354.004 -10.117 Q 357.500 -8.750 361.816 -8.750 Q 365.879 -8.750 368.848 -9.688 Q 371.816 -10.625 373.965 -11.719 Q 376.133 -12.812 377.598 -13.750 Q 379.063 -14.688 380.195 -14.688 Q 381.680 -14.688 382.500 -13.555 L 385.996 -9.062 Z M 441.695 -54.258 L 412.242 -54.258 L 412.242 -0.000 L 400.055 -0.000 L 400.055 -63.496 L 441.695 -63.496 L 441.695 -54.258 Z M 464.117 -15.625 Q 467.125 -11.680 470.582 -10.117 Q 474.059 -8.555 478.375 -8.555 Q 486.754 -8.555 491.344 -14.590 Q 495.934 -20.625 495.934 -32.188 Q 495.934 -38.242 494.899 -42.520 Q 493.883 -46.816 491.910 -49.531 Q 489.938 -52.246 487.066 -53.516 Q 484.195 -54.805 480.563 -54.805 Q 475.250 -54.805 471.344 -52.422 Q 467.438 -50.059 464.117 -45.684 L 464.117 -15.625 Z M 463.492 -54.004 Q 465.504 -56.367 467.770 -58.340 Q 470.055 -60.312 472.672 -61.719 Q 475.309 -63.125 478.277 -63.906 Q 481.246 -64.688 484.625 -64.688 Q 490.055 -64.688 494.469 -62.559 Q 498.883 -60.430 502.008 -56.309 Q 505.133 -52.188 506.852 -46.113 Q 508.570 -40.059 508.570 -32.188 Q 508.570 -25.117 506.656 -19.082 Q 504.742 -13.066 501.207 -8.613 Q 497.691 -4.180 492.594 -1.641 Q 487.496 0.879 481.129 0.879 Q 475.445 0.879 471.383 -0.996 Q 467.320 -2.871 464.117 -6.250 L 464.117 21.309 L 451.930 21.309 L 451.930 -63.496 L 459.254 -63.496 Q 461.813 -63.496 462.438 -61.055 L 463.492 -54.004 Z M 556.320 -28.184 Q 548.879 -27.930 543.684 -27.031 Q 538.508 -26.133 535.246 -24.629 Q 532.004 -23.125 530.559 -21.094 Q 529.133 -19.062 529.133 -16.562 Q 529.133 -14.180 529.914 -12.461 Q 530.695 -10.742 532.024 -9.648 Q 533.371 -8.555 535.188 -8.047 Q 537.004 -7.559 539.133 -7.559 Q 541.945 -7.559 544.289 -8.125 Q 546.633 -8.691 548.684 -9.707 Q 550.754 -10.742 552.629 -12.246 Q 554.504 -13.750 556.320 -15.684 L 556.320 -28.184 Z M 520.559 -54.629 Q 525.871 -59.688 532.082 -62.188 Q 538.313 -64.688 545.754 -64.688 Q 551.184 -64.688 555.363 -62.910 Q 559.563 -61.133 562.434 -57.930 Q 565.305 -54.746 566.770 -50.312 Q 568.254 -45.879 568.254 -40.508 L 568.254 -0.000 L 562.805 -0.000 Q 561.008 -0.000 560.070 -0.586 Q 559.133 -1.191 558.567 -2.812 L 557.258 -8.379 Q 554.817 -6.133 552.434 -4.414 Q 550.070 -2.695 547.473 -1.465 Q 544.875 -0.254 541.926 0.371 Q 538.996 0.996 535.442 0.996 Q 531.692 0.996 528.410 -0.020 Q 525.129 -1.055 522.688 -3.184 Q 520.246 -5.312 518.840 -8.496 Q 517.434 -11.680 517.434 -15.938 Q 517.434 -19.688 519.465 -23.145 Q 521.496 -26.621 526.086 -29.375 Q 530.695 -32.129 538.098 -33.867 Q 545.500 -35.625 556.320 -35.879 L 556.320 -40.508 Q 556.320 -47.695 553.254 -51.250 Q 550.188 -54.805 544.250 -54.805 Q 540.246 -54.805 537.531 -53.809 Q 534.817 -52.812 532.844 -51.582 Q 530.871 -50.371 529.406 -49.375 Q 527.942 -48.379 526.379 -48.379 Q 525.129 -48.379 524.211 -49.062 Q 523.313 -49.746 522.746 -50.684 L 520.559 -54.629 Z M 649.754 -9.258 L 649.754 17.930 Q 649.754 19.688 648.738 20.684 Q 647.742 21.680 646.180 21.680 L 638.680 21.680 L 638.680 -0.000 L 584.617 -0.000 L 584.617 -63.496 L 596.805 -63.496 L 596.805 -9.258 L 625.867 -9.258 L 625.867 -63.496 L 638.133 -63.496 L 638.133 -9.258 L 649.754 -9.258 Z M 715.754 -63.496 L 715.754 -0.000 L 703.508 -0.000 L 703.508 -41.504 Q 703.508 -42.754 703.625 -44.277 Q 703.742 -45.820 703.996 -47.383 Q 703.371 -46.055 702.766 -44.902 Q 702.180 -43.750 701.555 -42.871 L 672.375 -3.066 Q 671.692 -1.934 670.559 -0.938 Q 669.445 0.059 668.000 0.059 L 660.617 0.059 L 660.617 -63.496 L 672.805 -63.496 L 672.805 -21.934 Q 672.805 -20.684 672.688 -19.141 Q 672.570 -17.617 672.317 -16.133 Q 673.567 -18.867 674.758 -20.566 L 703.938 -60.430 Q 704.621 -61.504 705.774 -62.500 Q 706.945 -63.496 708.371 -63.496 L 715.754 -63.496 Z M 766.125 -34.180 L 766.125 -55.371 L 756.067 -55.371 Q 752.629 -55.371 750.305 -54.395 Q 748.000 -53.438 746.594 -51.875 Q 745.188 -50.312 744.582 -48.438 Q 743.996 -46.562 743.996 -44.688 Q 743.996 -39.746 747.551 -36.953 Q 751.125 -34.180 757.258 -34.180 L 766.125 -34.180 Z M 777.746 -63.496 L 777.746 -0.000 L 766.125 -0.000 L 766.125 -26.445 L 761.809 -26.445 Q 759.992 -26.445 758.801 -26.152 Q 757.629 -25.879 756.770 -25.312 Q 755.930 -24.746 755.305 -23.926 Q 754.680 -23.125 754.055 -22.129 L 741.125 -4.258 Q 740.500 -3.184 739.817 -2.402 Q 739.133 -1.621 738.254 -1.094 Q 737.375 -0.566 736.184 -0.273 Q 734.992 -0.000 733.371 -0.000 L 724.934 -0.000 L 742.746 -23.555 Q 745.070 -27.500 749.055 -28.867 Q 744.309 -29.492 741.027 -31.152 Q 737.746 -32.812 735.676 -35.020 Q 733.625 -37.246 732.688 -39.902 Q 731.750 -42.559 731.750 -45.312 Q 731.750 -48.691 733.059 -51.934 Q 734.367 -55.195 737.238 -57.754 Q 740.129 -60.312 744.680 -61.895 Q 749.250 -63.496 755.695 -63.496 L 777.746 -63.496 Z" fill="#000000" opacity="0.1425" transform="translate(186.59954643249512,574) scale(1.0)" /><path d="M 399.18 41.18 L 401.54 307.86 L 436.94 307.86 L 586.80 146.20 L 589.16 238.24 L 632.82 188.68 L 634.00 41.18 L 623.38 40.00 L 448.74 228.80 L 446.38 41.18 Z M 750.82 126.14 L 721.32 127.32 L 567.92 300.78 L 565.56 206.38 L 527.80 247.68 L 521.90 385.74 L 552.58 385.74 L 704.80 217.00 L 705.98 384.56 L 750.82 384.56 Z" fill="#000000" opacity="0.2" transform="translate(3,5)" /><path d="M 84.570 -89.746 L 84.570 -0.000 L 71.250 -0.000 L 71.250 -61.758 Q 71.250 -64.570 71.367 -67.656 Q 71.504 -70.742 71.992 -74.121 Q 70.820 -71.133 69.570 -68.555 Q 68.320 -65.996 67.070 -64.004 L 26.934 -4.180 Q 25.996 -2.617 24.453 -1.309 Q 22.930 -0.000 20.996 -0.000 L 11.055 -0.000 L 11.055 -89.746 L 24.434 -89.746 L 24.434 -28.008 Q 24.434 -25.195 24.277 -22.090 Q 24.121 -19.004 23.691 -15.566 Q 24.805 -18.555 26.055 -21.152 Q 27.305 -23.750 28.555 -25.742 L 68.750 -85.566 Q 69.688 -87.129 71.191 -88.438 Q 72.695 -89.746 74.629 -89.746 L 84.570 -89.746 Z M 180.258 -89.746 L 180.258 -0.000 L 166.938 -0.000 L 166.938 -61.758 Q 166.938 -64.570 167.055 -67.656 Q 167.191 -70.742 167.680 -74.121 Q 166.508 -71.133 165.258 -68.555 Q 164.008 -65.996 162.758 -64.004 L 122.621 -4.180 Q 121.684 -2.617 120.141 -1.309 Q 118.617 -0.000 116.684 -0.000 L 106.742 -0.000 L 106.742 -89.746 L 120.121 -89.746 L 120.121 -28.008 Q 120.121 -25.195 119.965 -22.090 Q 119.809 -19.004 119.379 -15.566 Q 120.492 -18.555 121.742 -21.152 Q 122.992 -23.750 124.242 -25.742 L 164.438 -85.566 Q 165.375 -87.129 166.879 -88.438 Q 168.383 -89.746 170.316 -89.746 L 180.258 -89.746 Z M 253.445 -63.496 L 253.445 -0.000 L 241.180 -0.000 L 241.180 -29.258 L 212.117 -29.258 L 212.117 -0.000 L 199.930 -0.000 L 199.930 -63.496 L 212.117 -63.496 L 212.117 -38.496 L 241.180 -38.496 L 241.180 -63.496 L 253.445 -63.496 Z M 323.695 -54.258 L 299.750 -54.258 L 299.750 -0.000 L 287.504 -0.000 L 287.504 -54.258 L 263.559 -54.258 L 263.559 -63.496 L 323.695 -63.496 L 323.695 -54.258 Z M 375.938 -38.809 Q 375.938 -42.441 374.902 -45.488 Q 373.867 -48.555 371.875 -50.801 Q 369.883 -53.066 366.992 -54.316 Q 364.121 -55.566 360.371 -55.566 Q 352.695 -55.566 348.281 -51.113 Q 343.867 -46.680 342.695 -38.809 L 375.938 -38.809 Z M 385.996 -9.062 Q 383.750 -6.445 380.801 -4.531 Q 377.871 -2.617 374.551 -1.426 Q 371.250 -0.254 367.715 0.312 Q 364.180 0.879 360.742 0.879 Q 354.180 0.879 348.594 -1.328 Q 343.008 -3.555 338.906 -7.832 Q 334.805 -12.129 332.520 -18.457 Q 330.254 -24.805 330.254 -33.066 Q 330.254 -39.688 332.305 -45.410 Q 334.375 -51.133 338.223 -55.371 Q 342.070 -59.629 347.617 -62.051 Q 353.184 -64.492 360.117 -64.492 Q 365.938 -64.492 370.840 -62.578 Q 375.742 -60.684 379.297 -57.051 Q 382.871 -53.438 384.902 -48.125 Q 386.934 -42.812 386.934 -35.996 Q 386.934 -33.184 386.309 -32.207 Q 385.684 -31.250 384.004 -31.250 L 342.383 -31.250 Q 342.559 -25.566 343.984 -21.348 Q 345.430 -17.129 347.969 -14.316 Q 350.508 -11.504 354.004 -10.117 Q 357.500 -8.750 361.816 -8.750 Q 365.879 -8.750 368.848 -9.688 Q 371.816 -10.625 373.965 -11.719 Q 376.133 -12.812 377.598 -13.750 Q 379.063 -14.688 380.195 -14.688 Q 381.680 -14.688 382.500 -13.555 L 385.996 -9.062 Z M 441.695 -54.258 L 412.242 -54.258 L 412.242 -0.000 L 400.055 -0.000 L 400.055 -63.496 L 441.695 -63.496 L 441.695 -54.258 Z M 464.117 -15.625 Q 467.125 -11.680 470.582 -10.117 Q 474.059 -8.555 478.375 -8.555 Q 486.754 -8.555 491.344 -14.590 Q 495.934 -20.625 495.934 -32.188 Q 495.934 -38.242 494.899 -42.520 Q 493.883 -46.816 491.910 -49.531 Q 489.938 -52.246 487.066 -53.516 Q 484.195 -54.805 480.563 -54.805 Q 475.250 -54.805 471.344 -52.422 Q 467.438 -50.059 464.117 -45.684 L 464.117 -15.625 Z M 463.492 -54.004 Q 465.504 -56.367 467.770 -58.340 Q 470.055 -60.312 472.672 -61.719 Q 475.309 -63.125 478.277 -63.906 Q 481.246 -64.688 484.625 -64.688 Q 490.055 -64.688 494.469 -62.559 Q 498.883 -60.430 502.008 -56.309 Q 505.133 -52.188 506.852 -46.113 Q 508.570 -40.059 508.570 -32.188 Q 508.570 -25.117 506.656 -19.082 Q 504.742 -13.066 501.207 -8.613 Q 497.691 -4.180 492.594 -1.641 Q 487.496 0.879 481.129 0.879 Q 475.445 0.879 471.383 -0.996 Q 467.320 -2.871 464.117 -6.250 L 464.117 21.309 L 451.930 21.309 L 451.930 -63.496 L 459.254 -63.496 Q 461.813 -63.496 462.438 -61.055 L 463.492 -54.004 Z M 556.320 -28.184 Q 548.879 -27.930 543.684 -27.031 Q 538.508 -26.133 535.246 -24.629 Q 532.004 -23.125 530.559 -21.094 Q 529.133 -19.062 529.133 -16.562 Q 529.133 -14.180 529.914 -12.461 Q 530.695 -10.742 532.024 -9.648 Q 533.371 -8.555 535.188 -8.047 Q 537.004 -7.559 539.133 -7.559 Q 541.945 -7.559 544.289 -8.125 Q 546.633 -8.691 548.684 -9.707 Q 550.754 -10.742 552.629 -12.246 Q 554.504 -13.750 556.320 -15.684 L 556.320 -28.184 Z M 520.559 -54.629 Q 525.871 -59.688 532.082 -62.188 Q 538.313 -64.688 545.754 -64.688 Q 551.184 -64.688 555.363 -62.910 Q 559.563 -61.133 562.434 -57.930 Q 565.305 -54.746 566.770 -50.312 Q 568.254 -45.879 568.254 -40.508 L 568.254 -0.000 L 562.805 -0.000 Q 561.008 -0.000 560.070 -0.586 Q 559.133 -1.191 558.567 -2.812 L 557.258 -8.379 Q 554.817 -6.133 552.434 -4.414 Q 550.070 -2.695 547.473 -1.465 Q 544.875 -0.254 541.926 0.371 Q 538.996 0.996 535.442 0.996 Q 531.692 0.996 528.410 -0.020 Q 525.129 -1.055 522.688 -3.184 Q 520.246 -5.312 518.840 -8.496 Q 517.434 -11.680 517.434 -15.938 Q 517.434 -19.688 519.465 -23.145 Q 521.496 -26.621 526.086 -29.375 Q 530.695 -32.129 538.098 -33.867 Q 545.500 -35.625 556.320 -35.879 L 556.320 -40.508 Q 556.320 -47.695 553.254 -51.250 Q 550.188 -54.805 544.250 -54.805 Q 540.246 -54.805 537.531 -53.809 Q 534.817 -52.812 532.844 -51.582 Q 530.871 -50.371 529.406 -49.375 Q 527.942 -48.379 526.379 -48.379 Q 525.129 -48.379 524.211 -49.062 Q 523.313 -49.746 522.746 -50.684 L 520.559 -54.629 Z M 649.754 -9.258 L 649.754 17.930 Q 649.754 19.688 648.738 20.684 Q 647.742 21.680 646.180 21.680 L 638.680 21.680 L 638.680 -0.000 L 584.617 -0.000 L 584.617 -63.496 L 596.805 -63.496 L 596.805 -9.258 L 625.867 -9.258 L 625.867 -63.496 L 638.133 -63.496 L 638.133 -9.258 L 649.754 -9.258 Z M 715.754 -63.496 L 715.754 -0.000 L 703.508 -0.000 L 703.508 -41.504 Q 703.508 -42.754 703.625 -44.277 Q 703.742 -45.820 703.996 -47.383 Q 703.371 -46.055 702.766 -44.902 Q 702.180 -43.750 701.555 -42.871 L 672.375 -3.066 Q 671.692 -1.934 670.559 -0.938 Q 669.445 0.059 668.000 0.059 L 660.617 0.059 L 660.617 -63.496 L 672.805 -63.496 L 672.805 -21.934 Q 672.805 -20.684 672.688 -19.141 Q 672.570 -17.617 672.317 -16.133 Q 673.567 -18.867 674.758 -20.566 L 703.938 -60.430 Q 704.621 -61.504 705.774 -62.500 Q 706.945 -63.496 708.371 -63.496 L 715.754 -63.496 Z M 766.125 -34.180 L 766.125 -55.371 L 756.067 -55.371 Q 752.629 -55.371 750.305 -54.395 Q 748.000 -53.438 746.594 -51.875 Q 745.188 -50.312 744.582 -48.438 Q 743.996 -46.562 743.996 -44.688 Q 743.996 -39.746 747.551 -36.953 Q 751.125 -34.180 757.258 -34.180 L 766.125 -34.180 Z M 777.746 -63.496 L 777.746 -0.000 L 766.125 -0.000 L 766.125 -26.445 L 761.809 -26.445 Q 759.992 -26.445 758.801 -26.152 Q 757.629 -25.879 756.770 -25.312 Q 755.930 -24.746 755.305 -23.926 Q 754.680 -23.125 754.055 -22.129 L 741.125 -4.258 Q 740.500 -3.184 739.817 -2.402 Q 739.133 -1.621 738.254 -1.094 Q 737.375 -0.566 736.184 -0.273 Q 734.992 -0.000 733.371 -0.000 L 724.934 -0.000 L 742.746 -23.555 Q 745.070 -27.500 749.055 -28.867 Q 744.309 -29.492 741.027 -31.152 Q 737.746 -32.812 735.676 -35.020 Q 733.625 -37.246 732.688 -39.902 Q 731.750 -42.559 731.750 -45.312 Q 731.750 -48.691 733.059 -51.934 Q 734.367 -55.195 737.238 -57.754 Q 740.129 -60.312 744.680 -61.895 Q 749.250 -63.496 755.695 -63.496 L 777.746 -63.496 Z" fill="#000000" opacity="0.19" transform="translate(183.59954643249512,570) scale(1.0)" /><path d="M 399.18 41.18 L 401.54 307.86 L 436.94 307.86 L 586.80 146.20 L 589.16 238.24 L 632.82 188.68 L 634.00 41.18 L 623.38 40.00 L 448.74 228.80 L 446.38 41.18 Z M 750.82 126.14 L 721.32 127.32 L 567.92 300.78 L 565.56 206.38 L 527.80 247.68 L 521.90 385.74 L 552.58 385.74 L 704.80 217.00 L 705.98 384.56 L 750.82 384.56 Z" fill="url(#metal)" /><path d="M 84.570 -89.746 L 84.570 -0.000 L 71.250 -0.000 L 71.250 -61.758 Q 71.250 -64.570 71.367 -67.656 Q 71.504 -70.742 71.992 -74.121 Q 70.820 -71.133 69.570 -68.555 Q 68.320 -65.996 67.070 -64.004 L 26.934 -4.180 Q 25.996 -2.617 24.453 -1.309 Q 22.930 -0.000 20.996 -0.000 L 11.055 -0.000 L 11.055 -89.746 L 24.434 -89.746 L 24.434 -28.008 Q 24.434 -25.195 24.277 -22.090 Q 24.121 -19.004 23.691 -15.566 Q 24.805 -18.555 26.055 -21.152 Q 27.305 -23.750 28.555 -25.742 L 68.750 -85.566 Q 69.688 -87.129 71.191 -88.438 Q 72.695 -89.746 74.629 -89.746 L 84.570 -89.746 Z M 180.258 -89.746 L 180.258 -0.000 L 166.938 -0.000 L 166.938 -61.758 Q 166.938 -64.570 167.055 -67.656 Q 167.191 -70.742 167.680 -74.121 Q 166.508 -71.133 165.258 -68.555 Q 164.008 -65.996 162.758 -64.004 L 122.621 -4.180 Q 121.684 -2.617 120.141 -1.309 Q 118.617 -0.000 116.684 -0.000 L 106.742 -0.000 L 106.742 -89.746 L 120.121 -89.746 L 120.121 -28.008 Q 120.121 -25.195 119.965 -22.090 Q 119.809 -19.004 119.379 -15.566 Q 120.492 -18.555 121.742 -21.152 Q 122.992 -23.750 124.242 -25.742 L 164.438 -85.566 Q 165.375 -87.129 166.879 -88.438 Q 168.383 -89.746 170.316 -89.746 L 180.258 -89.746 Z M 253.445 -63.496 L 253.445 -0.000 L 241.180 -0.000 L 241.180 -29.258 L 212.117 -29.258 L 212.117 -0.000 L 199.930 -0.000 L 199.930 -63.496 L 212.117 -63.496 L 212.117 -38.496 L 241.180 -38.496 L 241.180 -63.496 L 253.445 -63.496 Z M 323.695 -54.258 L 299.750 -54.258 L 299.750 -0.000 L 287.504 -0.000 L 287.504 -54.258 L 263.559 -54.258 L 263.559 -63.496 L 323.695 -63.496 L 323.695 -54.258 Z M 375.938 -38.809 Q 375.938 -42.441 374.902 -45.488 Q 373.867 -48.555 371.875 -50.801 Q 369.883 -53.066 366.992 -54.316 Q 364.121 -55.566 360.371 -55.566 Q 352.695 -55.566 348.281 -51.113 Q 343.867 -46.680 342.695 -38.809 L 375.938 -38.809 Z M 385.996 -9.062 Q 383.750 -6.445 380.801 -4.531 Q 377.871 -2.617 374.551 -1.426 Q 371.250 -0.254 367.715 0.312 Q 364.180 0.879 360.742 0.879 Q 354.180 0.879 348.594 -1.328 Q 343.008 -3.555 338.906 -7.832 Q 334.805 -12.129 332.520 -18.457 Q 330.254 -24.805 330.254 -33.066 Q 330.254 -39.688 332.305 -45.410 Q 334.375 -51.133 338.223 -55.371 Q 342.070 -59.629 347.617 -62.051 Q 353.184 -64.492 360.117 -64.492 Q 365.938 -64.492 370.840 -62.578 Q 375.742 -60.684 379.297 -57.051 Q 382.871 -53.438 384.902 -48.125 Q 386.934 -42.812 386.934 -35.996 Q 386.934 -33.184 386.309 -32.207 Q 385.684 -31.250 384.004 -31.250 L 342.383 -31.250 Q 342.559 -25.566 343.984 -21.348 Q 345.430 -17.129 347.969 -14.316 Q 350.508 -11.504 354.004 -10.117 Q 357.500 -8.750 361.816 -8.750 Q 365.879 -8.750 368.848 -9.688 Q 371.816 -10.625 373.965 -11.719 Q 376.133 -12.812 377.598 -13.750 Q 379.063 -14.688 380.195 -14.688 Q 381.680 -14.688 382.500 -13.555 L 385.996 -9.062 Z M 441.695 -54.258 L 412.242 -54.258 L 412.242 -0.000 L 400.055 -0.000 L 400.055 -63.496 L 441.695 -63.496 L 441.695 -54.258 Z M 464.117 -15.625 Q 467.125 -11.680 470.582 -10.117 Q 474.059 -8.555 478.375 -8.555 Q 486.754 -8.555 491.344 -14.590 Q 495.934 -20.625 495.934 -32.188 Q 495.934 -38.242 494.899 -42.520 Q 493.883 -46.816 491.910 -49.531 Q 489.938 -52.246 487.066 -53.516 Q 484.195 -54.805 480.563 -54.805 Q 475.250 -54.805 471.344 -52.422 Q 467.438 -50.059 464.117 -45.684 L 464.117 -15.625 Z M 463.492 -54.004 Q 465.504 -56.367 467.770 -58.340 Q 470.055 -60.312 472.672 -61.719 Q 475.309 -63.125 478.277 -63.906 Q 481.246 -64.688 484.625 -64.688 Q 490.055 -64.688 494.469 -62.559 Q 498.883 -60.430 502.008 -56.309 Q 505.133 -52.188 506.852 -46.113 Q 508.570 -40.059 508.570 -32.188 Q 508.570 -25.117 506.656 -19.082 Q 504.742 -13.066 501.207 -8.613 Q 497.691 -4.180 492.594 -1.641 Q 487.496 0.879 481.129 0.879 Q 475.445 0.879 471.383 -0.996 Q 467.320 -2.871 464.117 -6.250 L 464.117 21.309 L 451.930 21.309 L 451.930 -63.496 L 459.254 -63.496 Q 461.813 -63.496 462.438 -61.055 L 463.492 -54.004 Z M 556.320 -28.184 Q 548.879 -27.930 543.684 -27.031 Q 538.508 -26.133 535.246 -24.629 Q 532.004 -23.125 530.559 -21.094 Q 529.133 -19.062 529.133 -16.562 Q 529.133 -14.180 529.914 -12.461 Q 530.695 -10.742 532.024 -9.648 Q 533.371 -8.555 535.188 -8.047 Q 537.004 -7.559 539.133 -7.559 Q 541.945 -7.559 544.289 -8.125 Q 546.633 -8.691 548.684 -9.707 Q 550.754 -10.742 552.629 -12.246 Q 554.504 -13.750 556.320 -15.684 L 556.320 -28.184 Z M 520.559 -54.629 Q 525.871 -59.688 532.082 -62.188 Q 538.313 -64.688 545.754 -64.688 Q 551.184 -64.688 555.363 -62.910 Q 559.563 -61.133 562.434 -57.930 Q 565.305 -54.746 566.770 -50.312 Q 568.254 -45.879 568.254 -40.508 L 568.254 -0.000 L 562.805 -0.000 Q 561.008 -0.000 560.070 -0.586 Q 559.133 -1.191 558.567 -2.812 L 557.258 -8.379 Q 554.817 -6.133 552.434 -4.414 Q 550.070 -2.695 547.473 -1.465 Q 544.875 -0.254 541.926 0.371 Q 538.996 0.996 535.442 0.996 Q 531.692 0.996 528.410 -0.020 Q 525.129 -1.055 522.688 -3.184 Q 520.246 -5.312 518.840 -8.496 Q 517.434 -11.680 517.434 -15.938 Q 517.434 -19.688 519.465 -23.145 Q 521.496 -26.621 526.086 -29.375 Q 530.695 -32.129 538.098 -33.867 Q 545.500 -35.625 556.320 -35.879 L 556.320 -40.508 Q 556.320 -47.695 553.254 -51.250 Q 550.188 -54.805 544.250 -54.805 Q 540.246 -54.805 537.531 -53.809 Q 534.817 -52.812 532.844 -51.582 Q 530.871 -50.371 529.406 -49.375 Q 527.942 -48.379 526.379 -48.379 Q 525.129 -48.379 524.211 -49.062 Q 523.313 -49.746 522.746 -50.684 L 520.559 -54.629 Z M 649.754 -9.258 L 649.754 17.930 Q 649.754 19.688 648.738 20.684 Q 647.742 21.680 646.180 21.680 L 638.680 21.680 L 638.680 -0.000 L 584.617 -0.000 L 584.617 -63.496 L 596.805 -63.496 L 596.805 -9.258 L 625.867 -9.258 L 625.867 -63.496 L 638.133 -63.496 L 638.133 -9.258 L 649.754 -9.258 Z M 715.754 -63.496 L 715.754 -0.000 L 703.508 -0.000 L 703.508 -41.504 Q 703.508 -42.754 703.625 -44.277 Q 703.742 -45.820 703.996 -47.383 Q 703.371 -46.055 702.766 -44.902 Q 702.180 -43.750 701.555 -42.871 L 672.375 -3.066 Q 671.692 -1.934 670.559 -0.938 Q 669.445 0.059 668.000 0.059 L 660.617 0.059 L 660.617 -63.496 L 672.805 -63.496 L 672.805 -21.934 Q 672.805 -20.684 672.688 -19.141 Q 672.570 -17.617 672.317 -16.133 Q 673.567 -18.867 674.758 -20.566 L 703.938 -60.430 Q 704.621 -61.504 705.774 -62.500 Q 706.945 -63.496 708.371 -63.496 L 715.754 -63.496 Z M 766.125 -34.180 L 766.125 -55.371 L 756.067 -55.371 Q 752.629 -55.371 750.305 -54.395 Q 748.000 -53.438 746.594 -51.875 Q 745.188 -50.312 744.582 -48.438 Q 743.996 -46.562 743.996 -44.688 Q 743.996 -39.746 747.551 -36.953 Q 751.125 -34.180 757.258 -34.180 L 766.125 -34.180 Z M 777.746 -63.496 L 777.746 -0.000 L 766.125 -0.000 L 766.125 -26.445 L 761.809 -26.445 Q 759.992 -26.445 758.801 -26.152 Q 757.629 -25.879 756.770 -25.312 Q 755.930 -24.746 755.305 -23.926 Q 754.680 -23.125 754.055 -22.129 L 741.125 -4.258 Q 740.500 -3.184 739.817 -2.402 Q 739.133 -1.621 738.254 -1.094 Q 737.375 -0.566 736.184 -0.273 Q 734.992 -0.000 733.371 -0.000 L 724.934 -0.000 L 742.746 -23.555 Q 745.070 -27.500 749.055 -28.867 Q 744.309 -29.492 741.027 -31.152 Q 737.746 -32.812 735.676 -35.020 Q 733.625 -37.246 732.688 -39.902 Q 731.750 -42.559 731.750 -45.312 Q 731.750 -48.691 733.059 -51.934 Q 734.367 -55.195 737.238 -57.754 Q 740.129 -60.312 744.680 -61.895 Q 749.250 -63.496 755.695 -63.496 L 777.746 -63.496 Z" fill="url(#metal)" transform="translate(180.59954643249512,565) scale(1.0)" /><path d="M 399.18 41.18 L 401.54 307.86 L 436.94 307.86 L 586.80 146.20 L 589.16 238.24 L 632.82 188.68 L 634.00 41.18 L 623.38 40.00 L 448.74 228.80 L 446.38 41.18 Z M 750.82 126.14 L 721.32 127.32 L 567.92 300.78 L 565.56 206.38 L 527.80 247.68 L 521.90 385.74 L 552.58 385.74 L 704.80 217.00 L 705.98 384.56 L 750.82 384.56 Z" fill="none" opacity="0.55" stroke="#ffffff" stroke-width="1.4" /><path d="M 84.570 -89.746 L 84.570 -0.000 L 71.250 -0.000 L 71.250 -61.758 Q 71.250 -64.570 71.367 -67.656 Q 71.504 -70.742 71.992 -74.121 Q 70.820 -71.133 69.570 -68.555 Q 68.320 -65.996 67.070 -64.004 L 26.934 -4.180 Q 25.996 -2.617 24.453 -1.309 Q 22.930 -0.000 20.996 -0.000 L 11.055 -0.000 L 11.055 -89.746 L 24.434 -89.746 L 24.434 -28.008 Q 24.434 -25.195 24.277 -22.090 Q 24.121 -19.004 23.691 -15.566 Q 24.805 -18.555 26.055 -21.152 Q 27.305 -23.750 28.555 -25.742 L 68.750 -85.566 Q 69.688 -87.129 71.191 -88.438 Q 72.695 -89.746 74.629 -89.746 L 84.570 -89.746 Z M 180.258 -89.746 L 180.258 -0.000 L 166.938 -0.000 L 166.938 -61.758 Q 166.938 -64.570 167.055 -67.656 Q 167.191 -70.742 167.680 -74.121 Q 166.508 -71.133 165.258 -68.555 Q 164.008 -65.996 162.758 -64.004 L 122.621 -4.180 Q 121.684 -2.617 120.141 -1.309 Q 118.617 -0.000 116.684 -0.000 L 106.742 -0.000 L 106.742 -89.746 L 120.121 -89.746 L 120.121 -28.008 Q 120.121 -25.195 119.965 -22.090 Q 119.809 -19.004 119.379 -15.566 Q 120.492 -18.555 121.742 -21.152 Q 122.992 -23.750 124.242 -25.742 L 164.438 -85.566 Q 165.375 -87.129 166.879 -88.438 Q 168.383 -89.746 170.316 -89.746 L 180.258 -89.746 Z M 253.445 -63.496 L 253.445 -0.000 L 241.180 -0.000 L 241.180 -29.258 L 212.117 -29.258 L 212.117 -0.000 L 199.930 -0.000 L 199.930 -63.496 L 212.117 -63.496 L 212.117 -38.496 L 241.180 -38.496 L 241.180 -63.496 L 253.445 -63.496 Z M 323.695 -54.258 L 299.750 -54.258 L 299.750 -0.000 L 287.504 -0.000 L 287.504 -54.258 L 263.559 -54.258 L 263.559 -63.496 L 323.695 -63.496 L 323.695 -54.258 Z M 375.938 -38.809 Q 375.938 -42.441 374.902 -45.488 Q 373.867 -48.555 371.875 -50.801 Q 369.883 -53.066 366.992 -54.316 Q 364.121 -55.566 360.371 -55.566 Q 352.695 -55.566 348.281 -51.113 Q 343.867 -46.680 342.695 -38.809 L 375.938 -38.809 Z M 385.996 -9.062 Q 383.750 -6.445 380.801 -4.531 Q 377.871 -2.617 374.551 -1.426 Q 371.250 -0.254 367.715 0.312 Q 364.180 0.879 360.742 0.879 Q 354.180 0.879 348.594 -1.328 Q 343.008 -3.555 338.906 -7.832 Q 334.805 -12.129 332.520 -18.457 Q 330.254 -24.805 330.254 -33.066 Q 330.254 -39.688 332.305 -45.410 Q 334.375 -51.133 338.223 -55.371 Q 342.070 -59.629 347.617 -62.051 Q 353.184 -64.492 360.117 -64.492 Q 365.938 -64.492 370.840 -62.578 Q 375.742 -60.684 379.297 -57.051 Q 382.871 -53.438 384.902 -48.125 Q 386.934 -42.812 386.934 -35.996 Q 386.934 -33.184 386.309 -32.207 Q 385.684 -31.250 384.004 -31.250 L 342.383 -31.250 Q 342.559 -25.566 343.984 -21.348 Q 345.430 -17.129 347.969 -14.316 Q 350.508 -11.504 354.004 -10.117 Q 357.500 -8.750 361.816 -8.750 Q 365.879 -8.750 368.848 -9.688 Q 371.816 -10.625 373.965 -11.719 Q 376.133 -12.812 377.598 -13.750 Q 379.063 -14.688 380.195 -14.688 Q 381.680 -14.688 382.500 -13.555 L 385.996 -9.062 Z M 441.695 -54.258 L 412.242 -54.258 L 412.242 -0.000 L 400.055 -0.000 L 400.055 -63.496 L 441.695 -63.496 L 441.695 -54.258 Z M 464.117 -15.625 Q 467.125 -11.680 470.582 -10.117 Q 474.059 -8.555 478.375 -8.555 Q 486.754 -8.555 491.344 -14.590 Q 495.934 -20.625 495.934 -32.188 Q 495.934 -38.242 494.899 -42.520 Q 493.883 -46.816 491.910 -49.531 Q 489.938 -52.246 487.066 -53.516 Q 484.195 -54.805 480.563 -54.805 Q 475.250 -54.805 471.344 -52.422 Q 467.438 -50.059 464.117 -45.684 L 464.117 -15.625 Z M 463.492 -54.004 Q 465.504 -56.367 467.770 -58.340 Q 470.055 -60.312 472.672 -61.719 Q 475.309 -63.125 478.277 -63.906 Q 481.246 -64.688 484.625 -64.688 Q 490.055 -64.688 494.469 -62.559 Q 498.883 -60.430 502.008 -56.309 Q 505.133 -52.188 506.852 -46.113 Q 508.570 -40.059 508.570 -32.188 Q 508.570 -25.117 506.656 -19.082 Q 504.742 -13.066 501.207 -8.613 Q 497.691 -4.180 492.594 -1.641 Q 487.496 0.879 481.129 0.879 Q 475.445 0.879 471.383 -0.996 Q 467.320 -2.871 464.117 -6.250 L 464.117 21.309 L 451.930 21.309 L 451.930 -63.496 L 459.254 -63.496 Q 461.813 -63.496 462.438 -61.055 L 463.492 -54.004 Z M 556.320 -28.184 Q 548.879 -27.930 543.684 -27.031 Q 538.508 -26.133 535.246 -24.629 Q 532.004 -23.125 530.559 -21.094 Q 529.133 -19.062 529.133 -16.562 Q 529.133 -14.180 529.914 -12.461 Q 530.695 -10.742 532.024 -9.648 Q 533.371 -8.555 535.188 -8.047 Q 537.004 -7.559 539.133 -7.559 Q 541.945 -7.559 544.289 -8.125 Q 546.633 -8.691 548.684 -9.707 Q 550.754 -10.742 552.629 -12.246 Q 554.504 -13.750 556.320 -15.684 L 556.320 -28.184 Z M 520.559 -54.629 Q 525.871 -59.688 532.082 -62.188 Q 538.313 -64.688 545.754 -64.688 Q 551.184 -64.688 555.363 -62.910 Q 559.563 -61.133 562.434 -57.930 Q 565.305 -54.746 566.770 -50.312 Q 568.254 -45.879 568.254 -40.508 L 568.254 -0.000 L 562.805 -0.000 Q 561.008 -0.000 560.070 -0.586 Q 559.133 -1.191 558.567 -2.812 L 557.258 -8.379 Q 554.817 -6.133 552.434 -4.414 Q 550.070 -2.695 547.473 -1.465 Q 544.875 -0.254 541.926 0.371 Q 538.996 0.996 535.442 0.996 Q 531.692 0.996 528.410 -0.020 Q 525.129 -1.055 522.688 -3.184 Q 520.246 -5.312 518.840 -8.496 Q 517.434 -11.680 517.434 -15.938 Q 517.434 -19.688 519.465 -23.145 Q 521.496 -26.621 526.086 -29.375 Q 530.695 -32.129 538.098 -33.867 Q 545.500 -35.625 556.320 -35.879 L 556.320 -40.508 Q 556.320 -47.695 553.254 -51.250 Q 550.188 -54.805 544.250 -54.805 Q 540.246 -54.805 537.531 -53.809 Q 534.817 -52.812 532.844 -51.582 Q 530.871 -50.371 529.406 -49.375 Q 527.942 -48.379 526.379 -48.379 Q 525.129 -48.379 524.211 -49.062 Q 523.313 -49.746 522.746 -50.684 L 520.559 -54.629 Z M 649.754 -9.258 L 649.754 17.930 Q 649.754 19.688 648.738 20.684 Q 647.742 21.680 646.180 21.680 L 638.680 21.680 L 638.680 -0.000 L 584.617 -0.000 L 584.617 -63.496 L 596.805 -63.496 L 596.805 -9.258 L 625.867 -9.258 L 625.867 -63.496 L 638.133 -63.496 L 638.133 -9.258 L 649.754 -9.258 Z M 715.754 -63.496 L 715.754 -0.000 L 703.508 -0.000 L 703.508 -41.504 Q 703.508 -42.754 703.625 -44.277 Q 703.742 -45.820 703.996 -47.383 Q 703.371 -46.055 702.766 -44.902 Q 702.180 -43.750 701.555 -42.871 L 672.375 -3.066 Q 671.692 -1.934 670.559 -0.938 Q 669.445 0.059 668.000 0.059 L 660.617 0.059 L 660.617 -63.496 L 672.805 -63.496 L 672.805 -21.934 Q 672.805 -20.684 672.688 -19.141 Q 672.570 -17.617 672.317 -16.133 Q 673.567 -18.867 674.758 -20.566 L 703.938 -60.430 Q 704.621 -61.504 705.774 -62.500 Q 706.945 -63.496 708.371 -63.496 L 715.754 -63.496 Z M 766.125 -34.180 L 766.125 -55.371 L 756.067 -55.371 Q 752.629 -55.371 750.305 -54.395 Q 748.000 -53.438 746.594 -51.875 Q 745.188 -50.312 744.582 -48.438 Q 743.996 -46.562 743.996 -44.688 Q 743.996 -39.746 747.551 -36.953 Q 751.125 -34.180 757.258 -34.180 L 766.125 -34.180 Z M 777.746 -63.496 L 777.746 -0.000 L 766.125 -0.000 L 766.125 -26.445 L 761.809 -26.445 Q 759.992 -26.445 758.801 -26.152 Q 757.629 -25.879 756.770 -25.312 Q 755.930 -24.746 755.305 -23.926 Q 754.680 -23.125 754.055 -22.129 L 741.125 -4.258 Q 740.500 -3.184 739.817 -2.402 Q 739.133 -1.621 738.254 -1.094 Q 737.375 -0.566 736.184 -0.273 Q 734.992 -0.000 733.371 -0.000 L 724.934 -0.000 L 742.746 -23.555 Q 745.070 -27.500 749.055 -28.867 Q 744.309 -29.492 741.027 -31.152 Q 737.746 -32.812 735.676 -35.020 Q 733.625 -37.246 732.688 -39.902 Q 731.750 -42.559 731.750 -45.312 Q 731.750 -48.691 733.059 -51.934 Q 734.367 -55.195 737.238 -57.754 Q 740.129 -60.312 744.680 -61.895 Q 749.250 -63.496 755.695 -63.496 L 777.746 -63.496 Z" fill="none" opacity="0.55" stroke="#ffffff" stroke-width="1.1" transform="translate(180.59954643249512,565) scale(1.0)" /></g></svg>