<svg xmlns="http://www.w3.org/2000/svg" viewBox="0 0 1672 260" preserveAspectRatio="xMidYMax meet" aria-hidden="true">
  <defs>
    <linearGradient id="pcmSky" x1="50%" y1="0%" x2="50%" y2="100%">
      <stop offset="0%" stop-color="#00e7fd" stop-opacity="0"/>
      <stop offset="55%" stop-color="#00e7fd" stop-opacity="0.14"/>
      <stop offset="100%" stop-color="#f7a819" stop-opacity="0.1"/>
    </linearGradient>
    <linearGradient id="pcmGlow" x1="0%" y1="100%" x2="100%" y2="100%">
      <stop offset="0%" stop-color="#00e7fd" stop-opacity="0"/>
      <stop offset="50%" stop-color="#00e7fd" stop-opacity="0.18"/>
      <stop offset="100%" stop-color="#f7a819" stop-opacity="0.12"/>
    </linearGradient>
    <filter id="pcmBlur" x="-2%" y="-2%" width="104%" height="104%">
      <feGaussianBlur stdDeviation="1.2"/>
    </filter>
  </defs>
  <!-- Horizon wash -->
  <rect x="0" y="0" width="1672" height="260" fill="url(#pcmSky)" opacity="0.85"/>
  <!-- Distant sharp peaks (">@K") -->
  <path
    fill="#020810"
    stroke="rgba(0,231,253,0.2)"
    stroke-width="0.75"
    d="M0 260 L0 120 L88 72 L156 108 L220 58 L292 96 L360 48 L428 88 L512 42 L596 82 L668 52 L748 98 L820 62 L904 90 L980 54 L1068 100 L1148 64 L1228 92 L1308 56 L1388 88 L1468 62 L1548 94 L1628 70 L1672 88 L1672 260 Z"
  />
  <!-- Nearer ridge -->
  <path
    fill="#040c18"
    stroke="rgba(247,168,25,0.12)"
    stroke-width="0.55"
    opacity="0.94"
    d="M0 260 L0 168 L100 148 L188 178 L268 138 L356 168 L448 132 L536 172 L620 144 L708 182 L792 150 L884 176 L968 142 L1056 168 L1144 138 L1232 162 L1316 148 L1404 174 L1492 152 L1580 168 L1672 154 L1672 260 Z"
  />
  <!-- City line + towers -->
  <g fill="#050e1a" stroke="rgba(0,231,253,0.12)" stroke-width="0.45" opacity="0.92">
    <rect x="0" y="168" width="1672" height="92" fill="#03080f" stroke="none"/>
    <rect x="24" y="142" width="22" height="118"/>
    <rect x="52" y="158" width="18" height="102"/>
    <rect x="78" y="128" width="34" height="132"/>
    <rect x="118" y="150" width="26" height="110"/>
    <rect x="156" y="138" width="40" height="122"/>
    <rect x="210" y="162" width="20" height="98"/>
    <rect x="248" y="148" width="36" height="112"/>
    <rect x="298" y="172" width="16" height="88"/>
    <rect x="340" y="154" width="44" height="106"/>
    <rect x="402" y="140" width="28" height="120"/>
    <rect x="448" y="166" width="24" height="94"/>
    <rect x="488" y="152" width="52" height="108"/>
    <rect x="558" y="176" width="18" height="84"/>
    <rect x="592" y="146" width="38" height="114"/>
    <rect x="648" y="160" width="30" height="100"/>
    <rect x="692" y="134" width="46" height="126"/>
    <rect x="758" y="156" width="22" height="104"/>
    <rect x="798" y="144" width="56" height="116"/>
    <rect x="872" y="168" width="20" height="92"/>
    <rect x="908" y="150" width="34" height="110"/>
    <rect x="958" y="172" width="26" height="88"/>
    <rect x="1002" y="138" width="48" height="122"/>
    <rect x="1068" y="158" width="28" height="102"/>
    <rect x="1112" y="148" width="40" height="112"/>
    <rect x="1172" y="170" width="24" height="90"/>
    <rect x="1212" y="152" width="50" height="108"/>
    <rect x="1280" y="164" width="32" height="96"/>
    <rect x="1328" y="142" width="42" height="118"/>
    <rect x="1388" y="168" width="22" height="92"/>
    <rect x="1428" y="154" width="36" height="106"/>
    <rect x="1482" y="176" width="28" height="84"/>
    <rect x="1524" y="148" width="44" height="112"/>
    <rect x="1588" y="162" width="32" height="98"/>
    <rect x="1632" y="156" width="28" height="104"/>
  </g>
  <!-- Soft city / road glow band -->
  <path
    d="M0 248 Q420 228 836 238 T1672 244 L1672 260 L0 260 Z"
    fill="url(#pcmGlow)"
    opacity="0.55"
    filter="url(#pcmBlur)"
  />
</svg>
